<svg xmlns="http://www.w3.org/2000/svg" xmlns:xlink="http://www.w3.org/1999/xlink" viewBox="0 0 256 256"><defs><style>.cls-1{fill:url(#New_Gradient_Swatch);}.cls-2{fill:url(#linear-gradient);}.cls-3{fill:url(#linear-gradient-2);}.cls-4{fill:url(#linear-gradient-3);}.cls-5{fill:url(#linear-gradient-4);}</style><linearGradient id="New_Gradient_Swatch" x1="56.11" y1="-26.17" x2="199.89" y2="282.17" gradientUnits="userSpaceOnUse"><stop offset="0" stop-color="#f5f8fb"/><stop offset="1" stop-color="#eaf1f6"/></linearGradient><linearGradient id="linear-gradient" x1="53.49" y1="-31.78" x2="204.24" y2="291.5" gradientUnits="userSpaceOnUse"><stop offset="0" stop-color="#3b7ada"/><stop offset="1" stop-color="#2e61ad"/></linearGradient><linearGradient id="linear-gradient-2" x1="48.45" y1="-20.47" x2="192.63" y2="288.74" xlink:href="#linear-gradient"/><linearGradient id="linear-gradient-3" x1="37.29" y1="-5.37" x2="181.47" y2="303.84" xlink:href="#linear-gradient"/><linearGradient id="linear-gradient-4" x1="76.32" y1="-44.4" x2="220.51" y2="264.8" xlink:href="#linear-gradient"/></defs><g id="Isolation_Mode" data-name="Isolation Mode"><rect class="cls-1" width="256" height="256"/><g id="SnapScan_App_Icon" data-name="SnapScan App Icon"><g id="Group_64" data-name="Group 64"><path id="Path_176" data-name="Path 176" class="cls-2" d="M128,207.62A79.62,79.62,0,1,1,207.62,128h0A79.62,79.62,0,0,1,128,207.62h0m0-151.41a71.67,71.67,0,1,0,71.67,71.67A71.67,71.67,0,0,0,128,56.21h0"/><path id="Path_177" data-name="Path 177" class="cls-3" d="M117.8,122.78H99.3a5.11,5.11,0,0,1-5.12-5.11h0V99.18a5.11,5.11,0,0,1,5.12-5.11h18.51a5.11,5.11,0,0,1,5.11,5.11h0v18.51a5.11,5.11,0,0,1-5.11,5.11h0"/><path id="Path_178" data-name="Path 178" class="cls-4" d="M117.8,161.82H99.3a5.11,5.11,0,0,1-5.12-5.11h0V138.22a5.11,5.11,0,0,1,5.12-5.11h18.51a5.11,5.11,0,0,1,5.11,5.11h0v18.51a5.11,5.11,0,0,1-5.11,5.11h0"/><path id="Path_179" data-name="Path 179" class="cls-5" d="M156.83,122.78h-18.5a5.11,5.11,0,0,1-5.11-5.11h0V99.18a5.11,5.11,0,0,1,5.11-5.11h18.51A5.11,5.11,0,0,1,162,99.18h0v18.51a5.11,5.11,0,0,1-5.11,5.11h0"/></g></g></g></svg>